ffmpeg version 2.8.15-0ubuntu0.16.04.1 Copyright (c) 2000-2018 the FFmpeg developers
  built with gcc 5.4.0 (Ubuntu 5.4.0-6ubuntu1~16.04.10) 20160609
  configuration: --prefix=/usr --extra-version=0ubuntu0.16.04.1 --build-suffix=-ffmpeg --toolchain=hardened --libdir=/usr/lib/x86_64-linux-gnu --incdir=/usr/include/x86_64-linux-gnu --cc=cc --cxx=g++ --enable-gpl --enable-shared --disable-stripping --disable-decoder=libopenjpeg --disable-decoder=libschroedinger --enable-avresample --enable-avisynth --enable-gnutls --enable-ladspa --enable-libass --enable-libbluray --enable-libbs2b --enable-libcaca --enable-libcdio --enable-libflite --enable-libfontconfig --enable-libfreetype --enable-libfribidi --enable-libgme --enable-libgsm --enable-libmodplug --enable-libmp3lame --enable-libopenjpeg --enable-libopus --enable-libpulse --enable-librtmp --enable-libschroedinger --enable-libshine --enable-libsnappy --enable-libsoxr --enable-libspeex --enable-libssh --enable-libtheora --enable-libtwolame --enable-libvorbis --enable-libvpx --enable-libwavpack --enable-libwebp --enable-libx265 --enable-libxvid --enable-libzvbi --enable-openal --enable-opengl --enable-x11grab --enable-libdc1394 --enable-libiec61883 --enable-libzmq --enable-frei0r --enable-libx264 --enable-libopencv
  libavutil      54. 31.100 / 54. 31.100
  libavcodec     56. 60.100 / 56. 60.100
  libavformat    56. 40.101 / 56. 40.101
  libavdevice    56.  4.100 / 56.  4.100
  libavfilter     5. 40.101 /  5. 40.101
  libavresample   2.  1.  0 /  2.  1.  0
  libswscale      3.  1.101 /  3.  1.101
  libswresample   1.  2.101 /  1.  2.101
  libpostproc    53.  3.100 / 53.  3.100
Input #0, image2pipe, from 'pipe:':
  Duration: N/A, bitrate: N/A
    Stream #0:0: Video: ppm, rgb24, 512x512, 12 fps, 12 tbr, 12 tbn, 12 tbc
[libx264 @ 0x1f24c00] using cpu capabilities: MMX2 SSE2Fast SSSE3 SSE4.2 AVX
[libx264 @ 0x1f24c00] profile High, level 2.2
[libx264 @ 0x1f24c00] 264 - core 148 r2643 5c65704 - H.264/MPEG-4 AVC codec - Copyleft 2003-2015 - http://www.videolan.org/x264.html - options: cabac=1 ref=3 deblock=1:0:0 analyse=0x3:0x113 me=hex subme=7 psy=1 psy_rd=1.00:0.00 mixed_ref=1 me_range=16 chroma_me=1 trellis=1 8x8dct=1 cqm=0 deadzone=21,11 fast_pskip=1 chroma_qp_offset=-2 threads=12 lookahead_threads=2 sliced_threads=0 nr=0 decimate=1 interlaced=0 bluray_compat=0 constrained_intra=0 bframes=3 b_pyramid=2 b_adapt=1 b_bias=0 direct=1 weightb=1 open_gop=0 weightp=2 keyint=250 keyint_min=12 scenecut=40 intra_refresh=0 rc_lookahead=40 rc=abr mbtree=1 bitrate=400 ratetol=1.0 qcomp=0.60 qpmin=0 qpmax=69 qpstep=4 ip_ratio=1.40 aq=1:1.00
Output #0, mp4, to './mission_records/23cc24b9-7fd8-4086-a29a-551777be12b3/video.mp4':
  Metadata:
    encoder         : Lavf56.40.101
    Stream #0:0: Video: h264 (libx264) ([33][0][0][0] / 0x0021), yuv420p, 512x512, q=-1--1, 400 kb/s, 12 fps, 12288 tbn, 12 tbc
    Metadata:
      encoder         : Lavc56.60.100 libx264
Stream mapping:
  Stream #0:0 -> #0:0 (ppm (native) -> h264 (libx264))
frame=   14 fps=0.0 q=0.0 size=       0kB time=00:00:00.00 bitrate=N/A    frame=   19 fps= 18 q=0.0 size=       0kB time=00:00:00.00 bitrate=N/A    frame=   25 fps= 15 q=0.0 size=       0kB time=00:00:00.00 bitrate=N/A    frame=   31 fps= 14 q=0.0 size=       0kB time=00:00:00.00 bitrate=N/A    frame=   37 fps= 13 q=0.0 size=       0kB time=00:00:00.00 bitrate=N/A    frame=   43 fps= 13 q=0.0 size=       0kB time=00:00:00.00 bitrate=N/A    frame=   49 fps= 13 q=0.0 size=       0kB time=00:00:00.00 bitrate=N/A    frame=   55 fps= 12 q=0.0 size=       0kB time=00:00:00.00 bitrate=N/A    frame=   61 fps= 12 q=39.0 size=      67kB time=00:00:00.25 bitrate=2193.4kbits/s    frame=   67 fps= 12 q=43.0 size=     153kB time=00:00:00.75 bitrate=1672.2kbits/s    frame=   73 fps= 12 q=43.0 size=     213kB time=00:00:01.25 bitrate=1397.5kbits/s    frame=   79 fps= 12 q=44.0 size=     226kB time=00:00:01.75 bitrate=1059.9kbits/s    frame=   85 fps= 12 q=43.0 size=     227kB time=00:00:02.25 bitrate= 824.8kbits/s    frame=   91 fps= 12 q=38.0 size=     227kB time=00:00:02.75 bitrate= 675.2kbits/s    frame=   97 fps= 11 q=37.0 size=     227kB time=00:00:03.25 bitrate= 572.1kbits/s    frame=  103 fps= 11 q=34.0 size=     231kB time=00:00:03.75 bitrate= 505.0kbits/s    frame=  109 fps= 11 q=34.0 size=     235kB time=00:00:04.25 bitrate= 452.6kbits/s    frame=  115 fps= 11 q=31.0 size=     239kB time=00:00:04.75 bitrate= 412.7kbits/s    frame=  121 fps= 11 q=31.0 size=     250kB time=00:00:05.25 bitrate= 389.9kbits/s    frame=  127 fps= 11 q=30.0 size=     252kB time=00:00:05.75 bitrate= 358.4kbits/s    frame=  133 fps= 11 q=27.0 size=     252kB time=00:00:06.25 bitrate= 329.9kbits/s    frame=  138 fps= 11 q=28.0 size=     304kB time=00:00:06.66 bitrate= 374.1kbits/s    frame=  144 fps= 11 q=31.0 size=     395kB time=00:00:07.16 bitrate= 451.8kbits/s    frame=  150 fps= 11 q=34.0 size=     479kB time=00:00:07.66 bitrate= 511.7kbits/s    frame=  156 fps= 11 q=35.0 size=     541kB time=00:00:08.16 bitrate= 542.8kbits/s    frame=  162 fps= 11 q=35.0 size=     573kB time=00:00:08.66 bitrate= 541.5kbits/s    frame=  167 fps= 11 q=36.0 size=     603kB time=00:00:09.08 bitrate= 543.6kbits/s    frame=  173 fps= 11 q=36.0 size=     637kB time=00:00:09.58 bitrate= 544.1kbits/s    frame=  178 fps= 11 q=36.0 size=     668kB time=00:00:10.00 bitrate= 546.9kbits/s    frame=  184 fps= 11 q=37.0 size=     697kB time=00:00:10.50 bitrate= 543.7kbits/s    frame=  190 fps= 11 q=37.0 size=     724kB time=00:00:11.00 bitrate= 539.1kbits/s    frame=  195 fps= 11 q=38.0 size=     730kB time=00:00:11.41 bitrate= 523.7kbits/s    frame=  201 fps= 11 q=36.0 size=     731kB time=00:00:11.91 bitrate= 502.2kbits/s    frame=  206 fps= 11 q=36.0 size=     731kB time=00:00:12.33 bitrate= 485.5kbits/s    frame=  212 fps= 11 q=35.0 size=     732kB time=00:00:12.83 bitrate= 467.4kbits/s    frame=  218 fps= 11 q=34.0 size=     734kB time=00:00:13.33 bitrate= 450.8kbits/s    frame=  223 fps= 11 q=34.0 size=     735kB time=00:00:13.75 bitrate= 438.1kbits/s    frame=  229 fps= 11 q=33.0 size=     738kB time=00:00:14.25 bitrate= 424.0kbits/s    frame=  235 fps= 11 q=32.0 size=     738kB time=00:00:14.75 bitrate= 409.9kbits/s    frame=  241 fps= 11 q=31.0 size=     738kB time=00:00:15.25 bitrate= 396.6kbits/s    frame=  247 fps= 11 q=30.0 size=     738kB time=00:00:15.75 bitrate= 384.1kbits/s    frame=  253 fps= 11 q=29.0 size=     739kB time=00:00:16.25 bitrate= 372.4kbits/s    frame=  259 fps= 11 q=29.0 size=     770kB time=00:00:16.75 bitrate= 376.6kbits/s    frame=  265 fps= 11 q=30.0 size=     826kB time=00:00:17.25 bitrate= 392.5kbits/s    frame=  271 fps= 11 q=31.0 size=     922kB time=00:00:17.75 bitrate= 425.6kbits/s    frame=  277 fps= 11 q=33.0 size=     987kB time=00:00:18.25 bitrate= 443.0kbits/s    frame=  282 fps= 11 q=33.0 size=    1002kB time=00:00:18.66 bitrate= 439.8kbits/s    frame=  288 fps= 11 q=33.0 size=    1002kB time=00:00:19.16 bitrate= 428.4kbits/s    frame=  294 fps= 11 q=32.0 size=    1002kB time=00:00:19.66 bitrate= 417.5kbits/s    frame=  300 fps= 11 q=31.0 size=    1007kB time=00:00:20.16 bitrate= 409.0kbits/s    frame=  306 fps= 11 q=32.0 size=    1078kB time=00:00:20.66 bitrate= 427.2kbits/s    frame=  312 fps= 11 q=32.0 size=    1102kB time=00:00:21.16 bitrate= 426.5kbits/s    frame=  318 fps= 11 q=33.0 size=    1165kB time=00:00:21.66 bitrate= 440.5kbits/s    frame=  324 fps= 11 q=33.0 size=    1172kB time=00:00:22.16 bitrate= 433.1kbits/s    frame=  330 fps= 11 q=34.0 size=    1226kB time=00:00:22.66 bitrate= 443.1kbits/s    frame=  336 fps= 11 q=30.0 size=    1227kB time=00:00:23.16 bitrate= 433.9kbits/s    frame=  342 fps= 11 q=33.0 size=    1244kB time=00:00:23.66 bitrate= 430.7kbits/s    frame=  348 fps= 11 q=33.0 size=    1280kB time=00:00:24.16 bitrate= 433.9kbits/s    frame=  354 fps= 11 q=33.0 size=    1317kB time=00:00:24.66 bitrate= 437.5kbits/s    frame=  360 fps= 11 q=34.0 size=    1376kB time=00:00:25.16 bitrate= 448.0kbits/s    frame=  366 fps= 11 q=34.0 size=    1413kB time=00:00:25.66 bitrate= 451.0kbits/s    frame=  372 fps= 11 q=34.0 size=    1420kB time=00:00:26.16 bitrate= 444.5kbits/s    frame=  378 fps= 11 q=34.0 size=    1422kB time=00:00:26.66 bitrate= 437.0kbits/s    av_interleaved_write_frame(): Immediate exit requested
frame=  379 fps= 11 q=-1.0 Lsize=    1471kB time=00:00:30.58 bitrate= 394.1kbits/s    
video:1480kB audio:0kB subtitle:0kB other streams:0kB global headers:0kB muxing overhead: unknown
[libx264 @ 0x1f24c00] frame I:12    Avg QP:27.38  size: 19275
[libx264 @ 0x1f24c00] frame P:179   Avg QP:29.34  size:  6698
[libx264 @ 0x1f24c00] frame B:188   Avg QP:35.82  size:   705
[libx264 @ 0x1f24c00] consecutive B-frames: 28.0% 16.4%  4.0% 51.7%
[libx264 @ 0x1f24c00] mb I  I16..4:  4.8% 39.0% 56.2%
[libx264 @ 0x1f24c00] mb P  I16..4:  2.1% 12.6%  9.5%  P16..4: 23.2% 14.8%  8.9%  0.0%  0.0%    skip:29.0%
[libx264 @ 0x1f24c00] mb B  I16..4:  0.2%  0.5%  0.2%  B16..8: 11.7%  3.2%  1.0%  direct: 0.9%  skip:82.3%  L0:44.9% L1:52.3% BI: 2.8%
[libx264 @ 0x1f24c00] final ratefactor: 28.28
[libx264 @ 0x1f24c00] 8x8 transform intra:49.5% inter:56.4%
[libx264 @ 0x1f24c00] coded y,uvDC,uvAC intra: 60.9% 56.2% 30.0% inter: 12.1% 6.3% 0.7%
[libx264 @ 0x1f24c00] i16 v,h,dc,p: 28% 45% 17% 11%
[libx264 @ 0x1f24c00] i8 v,h,dc,ddl,ddr,vr,hd,vl,hu: 22% 16% 21%  6%  7%  7%  8%  5%  8%
[libx264 @ 0x1f24c00] i4 v,h,dc,ddl,ddr,vr,hd,vl,hu: 28% 26% 18%  4%  4%  5%  6%  4%  5%
[libx264 @ 0x1f24c00] i8c dc,h,v,p: 62% 21% 15%  3%
[libx264 @ 0x1f24c00] Weighted P-Frames: Y:0.0% UV:0.0%
[libx264 @ 0x1f24c00] ref P L0: 69.2% 12.8% 12.7%  5.3%
[libx264 @ 0x1f24c00] ref B L0: 81.7% 16.9%  1.4%
[libx264 @ 0x1f24c00] ref B L1: 93.3%  6.7%
[libx264 @ 0x1f24c00] kb/s:395.86
Exiting normally, received signal 2.
